<svg xmlns="http://www.w3.org/2000/svg" xmlns:xlink="http://www.w3.org/1999/xlink"
  viewBox="0 0 375.24 73.84">
  <defs>
    <style>
      .cls-1{fill:url(#Degradado_sin_nombre_5);}.cls-2{fill:#4c06bf;}.cls-3{fill:#fff;}.cls-4{fill:#4c06bf;}</style>
    <linearGradient id="Degradado_sin_nombre_5" x1="290.89" y1="34.37" x2="366.31" y2="34.37"
      gradientUnits="userSpaceOnUse">
      <stop offset="0" stop-color="#db242a" />
      <stop offset="1" stop-color="#e58924" />
    </linearGradient>
  </defs>
  <g id="OBJECTS">
    <path class="cls-1"
      d="M364.6,3.78h0A4.15,4.15,0,0,0,360.46,0H306a3.81,3.81,0,0,0-3.87,4.31c2.1,18.68,15.58,59.41-7.62,64.44h10.8A59.58,59.58,0,0,0,364.6,3.78Z"
      transform="translate(-1.39)" />
    <path class="cls-2"
      d="M368.24,3.86c2,18.24-6.43,35.7-17,47.28a62.59,62.59,0,0,1-11.31,9.73c18.46-9.76,35-28.5,36.71-51.1h0Z"
      transform="translate(-1.39)" />
    <path class="cls-3" d="M324.33,8.48a3.61,3.61,0,1,1-3.61-3.61A3.61,3.61,0,0,1,324.33,8.48Z"
      transform="translate(-1.39)" />
    <path class="cls-3" d="M349,8.48a3.61,3.61,0,1,1-3.61-3.61A3.61,3.61,0,0,1,349,8.48Z"
      transform="translate(-1.39)" />
    <path class="cls-3"
      d="M319.5,8.86h2.44v18.6a11.11,11.11,0,0,0,22.22,0V8.86h2.44v18.6a13.55,13.55,0,0,1-27.1,0Z"
      transform="translate(-1.39)" />
    
    
    
  </g>
</svg>