<svg xmlns="http://www.w3.org/2000/svg" xmlns:xlink="http://www.w3.org/1999/xlink"
  viewBox="0 0 375.24 73.84">
  <defs>
    <style>
      .cls-1{fill:url(#Degradado_sin_nombre_5);}.cls-2{fill:#FFF;}.cls-3{fill:#fff;}.cls-4{fill:#FFFFFF;}</style>
    <linearGradient id="Degradado_sin_nombre_5" x1="290.89" y1="34.37" x2="366.31" y2="34.37"
      gradientUnits="userSpaceOnUse">
      <stop offset="0" stop-color="#db242a" />
      <stop offset="1" stop-color="#e58924" />
    </linearGradient>
  </defs>
  <g id="OBJECTS">
    <path class="cls-1"
      d="M364.6,3.78h0A4.15,4.15,0,0,0,360.46,0H306a3.81,3.81,0,0,0-3.87,4.31c2.1,18.68,15.58,59.41-7.62,64.44h10.8A59.58,59.58,0,0,0,364.6,3.78Z"
      transform="translate(-1.39)" />
    <path class="cls-2"
      d="M368.24,3.86c2,18.24-6.43,35.7-17,47.28a62.59,62.59,0,0,1-11.31,9.73c18.46-9.76,35-28.5,36.71-51.1h0Z"
      transform="translate(-1.39)" />
    <path class="cls-3" d="M324.33,8.48a3.61,3.61,0,1,1-3.61-3.61A3.61,3.61,0,0,1,324.33,8.48Z"
      transform="translate(-1.39)" />
    <path class="cls-3" d="M349,8.48a3.61,3.61,0,1,1-3.61-3.61A3.61,3.61,0,0,1,349,8.48Z"
      transform="translate(-1.39)" />
    <path class="cls-3"
      d="M319.5,8.86h2.44v18.6a11.11,11.11,0,0,0,22.22,0V8.86h2.44v18.6a13.55,13.55,0,0,1-27.1,0Z"
      transform="translate(-1.39)" />
    <path class="cls-4"
      d="M19.07,24.71a9.1,9.1,0,0,1,3.34-2.18,12.38,12.38,0,0,1,4.38-.74A11.64,11.64,0,0,1,32.12,23a14.73,14.73,0,0,1,4.45,3.58L46,18.3a21.57,21.57,0,0,0-8.37-6.23A29.12,29.12,0,0,0,26.05,9.89a28.74,28.74,0,0,0-9.93,1.65,23.07,23.07,0,0,0-7.82,4.7,21.21,21.21,0,0,0-5.1,7.23,22.83,22.83,0,0,0-1.81,9.21A22.85,22.85,0,0,0,3.2,41.9a21.27,21.27,0,0,0,5.07,7.22A22.66,22.66,0,0,0,16,53.82a27.87,27.87,0,0,0,9.75,1.65A36.45,36.45,0,0,0,35.64,54a31.18,31.18,0,0,0,9.09-4.11V31.5H32v11c-.16.07-.33.15-.5.21a14.35,14.35,0,0,1-4.85.84,11.16,11.16,0,0,1-4.27-.78,9.46,9.46,0,0,1-3.27-2.21A9.76,9.76,0,0,1,17,37.13a12.67,12.67,0,0,1-.75-4.45A12.83,12.83,0,0,1,17,28.14,9.9,9.9,0,0,1,19.07,24.71Z"
      transform="translate(-1.39)" />
    <polygon class="cls-4"
      points="77.9 26.33 64.32 26.33 64.32 10.89 49.63 10.89 49.63 54.48 64.32 54.48 64.32 38.41 77.9 38.41 77.9 54.48 92.59 54.48 92.59 10.89 77.9 10.89 77.9 26.33" />
    <rect class="cls-4" x="98.94" y="31.19" width="18.68" height="10.58" />
    <path class="cls-4"
      d="M156.53,31.31a20.32,20.32,0,0,0-4.7-2.3,38.28,38.28,0,0,0-5.14-1.37L142,26.71a14.59,14.59,0,0,1-3.46-1.09,2,2,0,0,1-1.31-1.78,2.05,2.05,0,0,1,.54-1.37,3.6,3.6,0,0,1,1.77-1,12,12,0,0,1,3.36-.38,22.75,22.75,0,0,1,5.89.81A33.16,33.16,0,0,1,155,24.34l4.43-10.65a27.79,27.79,0,0,0-7.72-2.86A40.57,40.57,0,0,0,143,9.89a27.81,27.81,0,0,0-11.24,2A15.57,15.57,0,0,0,125,17.21a12.77,12.77,0,0,0-2.27,7.38,11.82,11.82,0,0,0,1.3,5.82,10.91,10.91,0,0,0,3.46,3.77,20.15,20.15,0,0,0,4.73,2.3,44.23,44.23,0,0,0,5.14,1.4c1.7.35,3.27.69,4.7,1A14.23,14.23,0,0,1,145.48,40a2.09,2.09,0,0,1,1.31,1.87,1.72,1.72,0,0,1-.56,1.28,3.94,3.94,0,0,1-1.78.81,16.09,16.09,0,0,1-3.33.27,27.32,27.32,0,0,1-7.44-1.08,30.38,30.38,0,0,1-6.94-2.9L122,51a30,30,0,0,0,8.41,3.24A44.47,44.47,0,0,0,141,55.47a27.38,27.38,0,0,0,11.27-2A15.68,15.68,0,0,0,159,48.09a12.62,12.62,0,0,0,2.27-7.31,11.46,11.46,0,0,0-1.3-5.73A11.09,11.09,0,0,0,156.53,31.31Z"
      transform="translate(-1.39)" />
    <path class="cls-4"
      d="M183.77,44.45a2.81,2.81,0,0,1-2.09-.87,3.35,3.35,0,0,1-.84-2.43V32.56h7V22.28h-7V12.76H166.77v9.52H162.1V32.56h4.67v8.72q0,7,3.92,10.43t11,3.39a25.41,25.41,0,0,0,4.77-.44,12.53,12.53,0,0,0,3.89-1.36L187,43.52A5.53,5.53,0,0,1,183.77,44.45Z"
      transform="translate(-1.39)" />
    <path class="cls-4"
      d="M221.19,22a24.49,24.49,0,0,0-20.51,0,17.43,17.43,0,0,0-7,6.22,16.63,16.63,0,0,0-2.55,9.16,16.62,16.62,0,0,0,2.55,9.15,17.67,17.67,0,0,0,7,6.26,24.3,24.3,0,0,0,20.51,0,17.41,17.41,0,0,0,7-6.26,16.77,16.77,0,0,0,2.52-9.15,16.78,16.78,0,0,0-2.52-9.16A17.17,17.17,0,0,0,221.19,22Zm-5.48,19.08a5.19,5.19,0,0,1-2,2.27,5.6,5.6,0,0,1-5.6,0,5.2,5.2,0,0,1-2-2.27,8.47,8.47,0,0,1-.74-3.7,8.25,8.25,0,0,1,.74-3.71,5.39,5.39,0,0,1,2-2.21,5.6,5.6,0,0,1,5.6,0,5.37,5.37,0,0,1,2,2.21,8.11,8.11,0,0,1,.75,3.71A8.33,8.33,0,0,1,215.71,41.12Z"
      transform="translate(-1.39)" />
    <path class="cls-4"
      d="M248.53,24.11V20.42H235.14V54.48h14.07V39.35q0-4.05,2-5.7a8,8,0,0,1,5.2-1.65c.5,0,1,0,1.46.06s1,.1,1.65.19V19.79a16,16,0,0,0-8.22,2A11,11,0,0,0,248.53,24.11Z"
      transform="translate(-1.39)" />
    <path class="cls-4"
      d="M296.88,27.7A16.3,16.3,0,0,0,290,21.79a21.67,21.67,0,0,0-9.31-2A21.34,21.34,0,0,0,270.85,22a17.35,17.35,0,0,0-6.91,6.22,16.78,16.78,0,0,0-2.52,9.16,16.5,16.5,0,0,0,2.55,9,17.47,17.47,0,0,0,7.19,6.32A24.14,24.14,0,0,0,282,55.1a24.51,24.51,0,0,0,8.75-1.4,16.26,16.26,0,0,0,6.13-4.08l-7.34-7.41a15.2,15.2,0,0,1-3.21,1.87,10.53,10.53,0,0,1-3.89.62,9,9,0,0,1-3.93-.78,5.46,5.46,0,0,1-2.49-2.33,8.59,8.59,0,0,1-.4-.87h23.63q.06-.75.12-1.65c0-.61.07-1.16.07-1.65A17.34,17.34,0,0,0,296.88,27.7Zm-19.05,2.46a5.66,5.66,0,0,1,3-.78,5.55,5.55,0,0,1,3,.78,5.46,5.46,0,0,1,2,2.18,6.47,6.47,0,0,1,.54,1.59h-11a6.44,6.44,0,0,1,.51-1.59A5.21,5.21,0,0,1,277.83,30.16Z"
      transform="translate(-1.39)" />
    <path class="cls-4"
      d="M94.47,71.05v-9.8H98.7a4.26,4.26,0,0,1,2.54.66,2.17,2.17,0,0,1,.9,1.86,2.3,2.3,0,0,1-.37,1.34,2.35,2.35,0,0,1-1,.83,3.35,3.35,0,0,1-1.39.28l.24-.33a4.14,4.14,0,0,1,1.61.28,2.27,2.27,0,0,1,1.06.86,2.47,2.47,0,0,1,.38,1.41,2.29,2.29,0,0,1-.92,1.93,4.65,4.65,0,0,1-2.77.68Zm1-.85H99a3.72,3.72,0,0,0,2-.44,1.58,1.58,0,0,0,.68-1.41,1.54,1.54,0,0,0-.68-1.39,3.63,3.63,0,0,0-2-.45H95.39v-.85h3.23a3.17,3.17,0,0,0,1.83-.45,1.68,1.68,0,0,0,0-2.67,3.25,3.25,0,0,0-1.83-.44H95.5Z"
      transform="translate(-1.39)" />
    <path class="cls-4"
      d="M104.82,71.05V63.7h1v2l-.1-.35a2.37,2.37,0,0,1,1-1.28,3.43,3.43,0,0,1,1.8-.44v1h-.22a2.36,2.36,0,0,0-1.82.71,2.83,2.83,0,0,0-.66,2v3.75Z"
      transform="translate(-1.39)" />
    <path class="cls-4"
      d="M110.83,62.07a.7.7,0,0,1-.52-.21.7.7,0,0,1,0-1,.73.73,0,0,1,.52-.2.77.77,0,0,1,.52.2.63.63,0,0,1,.2.49.7.7,0,0,1-.72.72Zm-.51,9V63.7h1v7.35Z"
      transform="translate(-1.39)" />
    <path class="cls-4"
      d="M117.84,63.63a3.47,3.47,0,0,1,1.58.34,2.44,2.44,0,0,1,1.06,1,3.55,3.55,0,0,1,.39,1.76v4.27h-1V66.88a2.41,2.41,0,0,0-.58-1.76,2.2,2.2,0,0,0-1.63-.59,2.86,2.86,0,0,0-1.37.31,2.17,2.17,0,0,0-.89.91,3.06,3.06,0,0,0-.32,1.44v3.86h-1V63.7h1v2l-.15-.38A2.62,2.62,0,0,1,116,64.09,3.46,3.46,0,0,1,117.84,63.63Z"
      transform="translate(-1.39)" />
    <path class="cls-4"
      d="M126.51,70.77a3.94,3.94,0,0,1-1.89-.45,3.43,3.43,0,0,1-1.32-1.27,3.84,3.84,0,0,1,0-3.72,3.31,3.31,0,0,1,1.32-1.25,3.94,3.94,0,0,1,1.89-.45,3.82,3.82,0,0,1,1.77.41,3,3,0,0,1,1.24,1.2,3.8,3.8,0,0,1,.47,2,3.86,3.86,0,0,1-.47,2,3.07,3.07,0,0,1-1.24,1.21A3.7,3.7,0,0,1,126.51,70.77Zm.19,3.07a6.55,6.55,0,0,1-1.94-.29,4,4,0,0,1-1.5-.84l.51-.76a3.7,3.7,0,0,0,1.28.73,4.6,4.6,0,0,0,1.62.28,2.86,2.86,0,0,0,2.06-.65,2.75,2.75,0,0,0,.66-2V68.45l.13-1.26-.09-1.26V63.7h.95v6.46a3.7,3.7,0,0,1-.93,2.79A3.85,3.85,0,0,1,126.7,73.84Zm-.09-4a3,3,0,0,0,1.44-.34,2.56,2.56,0,0,0,1-1,2.9,2.9,0,0,0,0-2.8,2.54,2.54,0,0,0-1-1,3.2,3.2,0,0,0-2.87,0,2.48,2.48,0,0,0-1,1,2.9,2.9,0,0,0,0,2.8,2.5,2.5,0,0,0,1,1A2.93,2.93,0,0,0,126.61,69.89Z"
      transform="translate(-1.39)" />
    <path class="cls-4"
      d="M136.88,73.84a3,3,0,0,1-1-.17,2.13,2.13,0,0,1-.8-.5l.46-.74a2.42,2.42,0,0,0,.61.41,1.73,1.73,0,0,0,.73.15,1.38,1.38,0,0,0,.85-.28,2.47,2.47,0,0,0,.68-1l.48-1.07.11-.16,3-6.82h1l-3.69,8.24a4.38,4.38,0,0,1-.68,1.13,2.22,2.22,0,0,1-.8.6A2.74,2.74,0,0,1,136.88,73.84Zm2-2.58-3.39-7.56h1l3,6.75Z"
      transform="translate(-1.39)" />
    <path class="cls-4"
      d="M147.2,71.12a3.8,3.8,0,0,1-1.92-.48A3.56,3.56,0,0,1,144,69.3a4.09,4.09,0,0,1,0-3.88,3.58,3.58,0,0,1,1.33-1.32,3.9,3.9,0,0,1,1.92-.47,3.85,3.85,0,0,1,1.94.48,3.51,3.51,0,0,1,1.33,1.32,3.71,3.71,0,0,1,.49,1.94,3.78,3.78,0,0,1-.49,1.94,3.54,3.54,0,0,1-1.33,1.33A3.9,3.9,0,0,1,147.2,71.12Zm0-.88a2.78,2.78,0,0,0,1.42-.36,2.59,2.59,0,0,0,1-1,3.09,3.09,0,0,0,.36-1.51,3,3,0,0,0-.36-1.51,2.62,2.62,0,0,0-1-1,3,3,0,0,0-2.8,0,2.67,2.67,0,0,0-1,1,3,3,0,0,0-.36,1.51,3.09,3.09,0,0,0,.36,1.51,2.65,2.65,0,0,0,2.37,1.36Z"
      transform="translate(-1.39)" />
    <path class="cls-4"
      d="M156,71.12a3.54,3.54,0,0,1-1.64-.35,2.46,2.46,0,0,1-1.09-1,3.54,3.54,0,0,1-.38-1.75V63.7h1v4.16a2.48,2.48,0,0,0,.58,1.77,2.18,2.18,0,0,0,1.64.6,2.7,2.7,0,0,0,1.33-.32,2,2,0,0,0,.87-.92,3.19,3.19,0,0,0,.3-1.44V63.7h1v7.35h-1V69l.16.36a2.76,2.76,0,0,1-1.09,1.27A3.21,3.21,0,0,1,156,71.12Z"
      transform="translate(-1.39)" />
    <path class="cls-4"
      d="M162.4,71.05V63.7h.95v2l-.1-.35a2.46,2.46,0,0,1,1-1.28,3.49,3.49,0,0,1,1.81-.44v1h-.22a2.39,2.39,0,0,0-1.83.71,2.88,2.88,0,0,0-.66,2v3.75Z"
      transform="translate(-1.39)" />
    <path class="cls-4"
      d="M171.69,71.05V60.66h1v5.21l-.14,1.48.1,1.49v2.21Zm3.79.07a3.35,3.35,0,0,1-1.73-.44,3,3,0,0,1-1.22-1.28,4.83,4.83,0,0,1,0-4.07,3.2,3.2,0,0,1,1.23-1.27,3.43,3.43,0,0,1,1.72-.43,3.84,3.84,0,0,1,1.89.47,3.43,3.43,0,0,1,1.31,1.31,4.3,4.3,0,0,1,0,3.91,3.49,3.49,0,0,1-1.31,1.33A3.73,3.73,0,0,1,175.48,71.12Zm-.07-.88a2.7,2.7,0,0,0,1.4-.36,2.62,2.62,0,0,0,1-1,3,3,0,0,0,.37-1.51,2.94,2.94,0,0,0-.37-1.51,2.64,2.64,0,0,0-1-1,2.8,2.8,0,0,0-1.4-.35,2.89,2.89,0,0,0-1.41.35,2.64,2.64,0,0,0-1,1,3.15,3.15,0,0,0-.35,1.51,3.2,3.2,0,0,0,.35,1.51,2.62,2.62,0,0,0,1,1A2.79,2.79,0,0,0,175.41,70.24Z"
      transform="translate(-1.39)" />
    <path class="cls-4"
      d="M184.22,71.12a3.57,3.57,0,0,1-1.64-.35,2.43,2.43,0,0,1-1.08-1,3.54,3.54,0,0,1-.39-1.75V63.7h1v4.16a2.44,2.44,0,0,0,.58,1.77,2.17,2.17,0,0,0,1.63.6,2.74,2.74,0,0,0,1.34-.32,2,2,0,0,0,.87-.92,3.19,3.19,0,0,0,.3-1.44V63.7h1v7.35h-.95V69l.15.36a2.73,2.73,0,0,1-1.08,1.27A3.22,3.22,0,0,1,184.22,71.12Z"
      transform="translate(-1.39)" />
    <path class="cls-4"
      d="M192.57,71.12a5.39,5.39,0,0,1-1.72-.26,3.73,3.73,0,0,1-1.28-.65l.45-.78a4.25,4.25,0,0,0,1.15.58,4.53,4.53,0,0,0,1.47.24,2.73,2.73,0,0,0,1.51-.32,1,1,0,0,0,.47-.88.84.84,0,0,0-.26-.64,1.82,1.82,0,0,0-.68-.35,9.59,9.59,0,0,0-.94-.2c-.35-.06-.69-.12-1-.2a3.78,3.78,0,0,1-.93-.32,1.88,1.88,0,0,1-.68-.6,1.78,1.78,0,0,1-.26-1,1.86,1.86,0,0,1,.33-1.08,2.33,2.33,0,0,1,1-.75,4.2,4.2,0,0,1,1.59-.27,5.35,5.35,0,0,1,1.43.19,4.19,4.19,0,0,1,1.18.49l-.44.8a3.34,3.34,0,0,0-1-.48,4.26,4.26,0,0,0-1.12-.15,2.47,2.47,0,0,0-1.46.35,1,1,0,0,0-.47.87.87.87,0,0,0,.26.66,1.77,1.77,0,0,0,.68.37,7.65,7.65,0,0,0,.94.22c.34,0,.69.12,1,.2a4.83,4.83,0,0,1,.93.32,1.71,1.71,0,0,1,.69.58,1.68,1.68,0,0,1,.26,1,1.81,1.81,0,0,1-.36,1.12,2.28,2.28,0,0,1-1,.72A4.54,4.54,0,0,1,192.57,71.12Z"
      transform="translate(-1.39)" />
    <path class="cls-4"
      d="M197.94,62.07a.7.7,0,0,1-.52-.21.7.7,0,0,1,0-1,.73.73,0,0,1,.52-.2.77.77,0,0,1,.52.2.63.63,0,0,1,.2.49.7.7,0,0,1-.72.72Zm-.51,9V63.7h1v7.35Z"
      transform="translate(-1.39)" />
    <path class="cls-4"
      d="M205,63.63a3.44,3.44,0,0,1,1.58.34,2.44,2.44,0,0,1,1.06,1,3.55,3.55,0,0,1,.39,1.76v4.27h-1V66.88a2.41,2.41,0,0,0-.58-1.76,2.18,2.18,0,0,0-1.63-.59,2.79,2.79,0,0,0-1.36.31,2.14,2.14,0,0,0-.9.91,3.06,3.06,0,0,0-.32,1.44v3.86h-1V63.7h1v2l-.15-.38a2.62,2.62,0,0,1,1.12-1.25A3.48,3.48,0,0,1,205,63.63Z"
      transform="translate(-1.39)" />
    <path class="cls-4"
      d="M213.79,71.12a4.13,4.13,0,0,1-2-.48,3.52,3.52,0,0,1-1.35-1.33,4.14,4.14,0,0,1,0-3.87,3.55,3.55,0,0,1,1.28-1.33,3.82,3.82,0,0,1,3.69,0,3.34,3.34,0,0,1,1.27,1.31,4.14,4.14,0,0,1,.46,2,.81.81,0,0,1,0,.15s0,.1,0,.16h-6.4v-.74h5.87l-.39.29a2.87,2.87,0,0,0-.35-1.42,2.44,2.44,0,0,0-.93-1,2.61,2.61,0,0,0-1.35-.35,2.67,2.67,0,0,0-1.36.35,2.53,2.53,0,0,0-.94,1,3.13,3.13,0,0,0-.34,1.45v.15a3,3,0,0,0,.37,1.48,2.68,2.68,0,0,0,1,1,3.13,3.13,0,0,0,1.52.36,3.24,3.24,0,0,0,1.25-.24,2.49,2.49,0,0,0,1-.73l.57.65a3.27,3.27,0,0,1-1.23.9A4.25,4.25,0,0,1,213.79,71.12Z"
      transform="translate(-1.39)" />
    <path class="cls-4"
      d="M221.1,71.12a5.43,5.43,0,0,1-1.72-.26,3.73,3.73,0,0,1-1.28-.65l.45-.78a4.25,4.25,0,0,0,1.15.58,4.53,4.53,0,0,0,1.47.24,2.73,2.73,0,0,0,1.51-.32,1,1,0,0,0,.47-.88.84.84,0,0,0-.26-.64,1.82,1.82,0,0,0-.68-.35,9.59,9.59,0,0,0-.94-.2c-.34-.06-.69-.12-1-.2a3.78,3.78,0,0,1-.93-.32,1.88,1.88,0,0,1-.68-.6,1.78,1.78,0,0,1-.26-1,1.8,1.8,0,0,1,.34-1.08,2.24,2.24,0,0,1,1-.75,4.2,4.2,0,0,1,1.59-.27,5.35,5.35,0,0,1,1.43.19,4.19,4.19,0,0,1,1.18.49l-.43.8a3.56,3.56,0,0,0-1.05-.48,4.39,4.39,0,0,0-1.13-.15,2.47,2.47,0,0,0-1.46.35,1,1,0,0,0-.47.87.87.87,0,0,0,.26.66,1.74,1.74,0,0,0,.69.37,7.48,7.48,0,0,0,.93.22c.35,0,.69.12,1,.2a5.19,5.19,0,0,1,.94.32,1.75,1.75,0,0,1,.68.58,1.61,1.61,0,0,1,.26,1,1.81,1.81,0,0,1-.36,1.12,2.22,2.22,0,0,1-1,.72A4.47,4.47,0,0,1,221.1,71.12Z"
      transform="translate(-1.39)" />
    <path class="cls-4"
      d="M227.94,71.12a5.39,5.39,0,0,1-1.72-.26,3.64,3.64,0,0,1-1.28-.65l.45-.78a4.25,4.25,0,0,0,1.15.58,4.49,4.49,0,0,0,1.47.24,2.76,2.76,0,0,0,1.51-.32,1,1,0,0,0,.46-.88.83.83,0,0,0-.25-.64,1.82,1.82,0,0,0-.68-.35,9.59,9.59,0,0,0-.94-.2c-.35-.06-.69-.12-1-.2a3.78,3.78,0,0,1-.93-.32,1.88,1.88,0,0,1-.68-.6,1.7,1.7,0,0,1-.26-1,1.86,1.86,0,0,1,.33-1.08,2.33,2.33,0,0,1,1-.75,4.2,4.2,0,0,1,1.59-.27,5.35,5.35,0,0,1,1.43.19,4.19,4.19,0,0,1,1.18.49l-.44.8a3.56,3.56,0,0,0-1-.48,4.26,4.26,0,0,0-1.12-.15,2.47,2.47,0,0,0-1.46.35,1,1,0,0,0-.47.87.83.83,0,0,0,.26.66,1.77,1.77,0,0,0,.68.37,7.65,7.65,0,0,0,.94.22c.34,0,.69.12,1,.2a4.71,4.71,0,0,1,.94.32,1.71,1.71,0,0,1,.69.58,1.68,1.68,0,0,1,.26,1,1.81,1.81,0,0,1-.36,1.12,2.26,2.26,0,0,1-1,.72A4.44,4.44,0,0,1,227.94,71.12Z"
      transform="translate(-1.39)" />
    <path class="cls-4"
      d="M239.47,71.12a3.8,3.8,0,0,1-1.92-.48,3.49,3.49,0,0,1-1.33-1.34,4.09,4.09,0,0,1,0-3.88,3.51,3.51,0,0,1,1.33-1.32,4.16,4.16,0,0,1,3.86,0,3.58,3.58,0,0,1,1.33,1.32,3.8,3.8,0,0,1,.48,1.94,3.88,3.88,0,0,1-.48,1.94,3.49,3.49,0,0,1-1.34,1.33A3.86,3.86,0,0,1,239.47,71.12Zm0-.88a2.74,2.74,0,0,0,1.41-.36,2.62,2.62,0,0,0,1-1,3.2,3.2,0,0,0,.35-1.51,3.15,3.15,0,0,0-.35-1.51,2.64,2.64,0,0,0-1-1,3,3,0,0,0-2.8,0,2.64,2.64,0,0,0-1,1,3,3,0,0,0-.36,1.51,3.09,3.09,0,0,0,.36,1.51,2.66,2.66,0,0,0,1,1A2.7,2.7,0,0,0,239.47,70.24Z"
      transform="translate(-1.39)" />
    <path class="cls-4"
      d="M249,63.63a3.42,3.42,0,0,1,1.57.34,2.46,2.46,0,0,1,1.07,1,3.67,3.67,0,0,1,.38,1.76v4.27h-1V66.88a2.45,2.45,0,0,0-.58-1.76,2.22,2.22,0,0,0-1.64-.59,2.81,2.81,0,0,0-1.36.31,2.14,2.14,0,0,0-.9.91,3.06,3.06,0,0,0-.31,1.44v3.86h-1V63.7h.95v2l-.15-.38a2.62,2.62,0,0,1,1.12-1.25A3.49,3.49,0,0,1,249,63.63Z"
      transform="translate(-1.39)" />
    <path class="cls-4" d="M254.72,71.05V60.66h1V71.05Z" transform="translate(-1.39)" />
    <path class="cls-4"
      d="M259,62.07a.72.72,0,0,1-.52-.21.7.7,0,0,1,0-1,.75.75,0,0,1,.52-.2.73.73,0,0,1,.52.2.64.64,0,0,1,.21.49.73.73,0,0,1-.2.51A.71.71,0,0,1,259,62.07Zm-.5,9V63.7h1v7.35Z"
      transform="translate(-1.39)" />
    <path class="cls-4"
      d="M266,63.63a3.47,3.47,0,0,1,1.58.34,2.5,2.5,0,0,1,1.06,1,3.55,3.55,0,0,1,.39,1.76v4.27h-1V66.88a2.41,2.41,0,0,0-.58-1.76,2.2,2.2,0,0,0-1.63-.59,2.86,2.86,0,0,0-1.37.31,2.17,2.17,0,0,0-.89.91,3.06,3.06,0,0,0-.32,1.44v3.86h-1V63.7h.95v2l-.15-.38a2.57,2.57,0,0,1,1.12-1.25A3.46,3.46,0,0,1,266,63.63Z"
      transform="translate(-1.39)" />
    <path class="cls-4"
      d="M274.85,71.12a4.11,4.11,0,0,1-2-.48,3.55,3.55,0,0,1-1.36-1.33,4.22,4.22,0,0,1,0-3.87,3.5,3.5,0,0,1,1.29-1.33,3.58,3.58,0,0,1,1.84-.48,3.66,3.66,0,0,1,1.85.47,3.38,3.38,0,0,1,1.26,1.31,4,4,0,0,1,.47,2s0,.09,0,.15a.81.81,0,0,0,0,.16h-6.4v-.74h5.87l-.39.29a2.87,2.87,0,0,0-.35-1.42,2.51,2.51,0,0,0-.93-1,2.62,2.62,0,0,0-1.36-.35,2.66,2.66,0,0,0-1.35.35,2.46,2.46,0,0,0-.94,1,3,3,0,0,0-.34,1.45v.15a2.85,2.85,0,0,0,.37,1.48,2.61,2.61,0,0,0,1,1,3.13,3.13,0,0,0,1.52.36,3.24,3.24,0,0,0,1.25-.24,2.57,2.57,0,0,0,1-.73l.56.65a3.24,3.24,0,0,1-1.22.9A4.25,4.25,0,0,1,274.85,71.12Z"
      transform="translate(-1.39)" />
  </g>
</svg>